<svg id="squid-game-svg" width="721" height="236" viewBox="0 0 721 236" fill="none" xmlns="http://www.w3.org/2000/svg">
<rect x="428" y="129" width="37.5" height="39" fill="#ED1B76"/>
<path d="M462.5 132H429.5V165H462.5" stroke="white" stroke-width="6" stroke-linecap="square"/>
<path d="M451.5 148.5H485" stroke="white" stroke-width="6" stroke-linecap="square"/>
<path d="M394 77.5V110.5H420C425.167 110.5 435.7 107.1 436.5 93.5C437.3 79.9 425.833 76.5 420 76.5H394" stroke="white" stroke-width="6" stroke-linecap="square"/>
<path d="M378 76V111" stroke="white" stroke-width="6" stroke-linecap="square"/>
<path d="M330 76.5V96C330 100.5 333.2 109.7 346 110.5C358.8 111.3 362.667 101.167 363 96V53" stroke="white" stroke-width="6" stroke-linecap="square"/>
<path d="M270 77H245.5C242.667 77 237 78.6 237 85C237 91.4 242.667 93.3333 245.5 93.5H264.5C267 93.3333 272.1 94.7 272.5 101.5C272.9 108.3 267.333 110.333 264.5 110.5H219.5" stroke="white" stroke-width="6" stroke-linecap="square"/>
<path d="M317.99 129.6L316.999 131.5H289.999C283.999 131.833 272.3 138.1 273.5 150.5C274.7 162.9 284.999 164.833 289.999 165.5H321.999" stroke="white" stroke-width="6" stroke-linecap="square"/>
<path fill-rule="evenodd" clip-rule="evenodd" d="M290.5 145.5H287.5V151.5H290.5H306.214L321.13 179H327.955L326.637 176.57L310.637 147.07L309.786 145.5H308H290.5Z" fill="white"/>
<path fill-rule="evenodd" clip-rule="evenodd" d="M372 133V132H377.894L394.5 160.103L411.106 132H417V133V166V169H411V166V143.974L397.083 167.526L396.803 168H392.197L391.917 167.526L378 143.974V166V169H372V166V133Z" fill="white"/>
<path d="M345.5 142L359.789 169H331.211L345.5 142Z" fill="#ED1B76"/>
<path fill-rule="evenodd" clip-rule="evenodd" d="M347.656 136.605L344.911 131.38L342.308 136.677L327.808 166.177L326.484 168.869L326.751 169H333.106L333.192 168.823L345.089 144.62L357.844 168.895L357.899 169H364.095L364.551 168.76L363.156 166.105L347.656 136.605Z" fill="white"/>
<circle cx="301" cy="94" r="17.5" fill="#ED1B76" stroke="white" stroke-width="5"/>
<path fill-rule="evenodd" clip-rule="evenodd" d="M299.183 95L300.3 97.3067L315.3 128.307L316.606 131.007L322.007 128.394L320.701 125.693L305.849 95H299.183Z" fill="white"/>
<path d="M511.475 154.324H506.904V167H505.039V154.324H500.479V152.781H511.475V154.324ZM526.512 167H524.627V160.428H517.459V167H515.584V152.781H517.459V158.895H524.627V152.781H526.512V167ZM539.879 160.428H533.717V165.467H540.875V167H531.842V152.781H540.777V154.324H533.717V158.895H539.879V160.428ZM560.012 160.721H554.045V167H552.17V152.781H560.979V154.324H554.045V159.188H560.012V160.721ZM571.416 163.289H565.459L564.121 167H562.188L567.617 152.781H569.258L574.697 167H572.773L571.416 163.289ZM566.025 161.746H570.859L568.438 155.096L566.025 161.746ZM589.539 167H587.654L580.496 156.043V167H578.611V152.781H580.496L587.674 163.787V152.781H589.539V167ZM596.744 161.434V167H594.869V152.781H600.113C601.669 152.781 602.887 153.178 603.766 153.973C604.651 154.767 605.094 155.818 605.094 157.127C605.094 158.507 604.661 159.572 603.795 160.32C602.936 161.062 601.702 161.434 600.094 161.434H596.744ZM596.744 159.9H600.113C601.116 159.9 601.884 159.666 602.418 159.197C602.952 158.722 603.219 158.038 603.219 157.146C603.219 156.3 602.952 155.623 602.418 155.115C601.884 154.607 601.152 154.344 600.221 154.324H596.744V159.9ZM615.99 163.289H610.033L608.695 167H606.762L612.191 152.781H613.832L619.271 167H617.348L615.99 163.289ZM610.6 161.746H615.434L613.012 155.096L610.6 161.746ZM633.566 165.135C633.085 165.825 632.411 166.342 631.545 166.688C630.686 167.026 629.683 167.195 628.537 167.195C627.378 167.195 626.35 166.925 625.451 166.385C624.553 165.838 623.856 165.063 623.361 164.061C622.873 163.058 622.622 161.896 622.609 160.574V159.334C622.609 157.192 623.107 155.532 624.104 154.354C625.106 153.175 626.512 152.586 628.322 152.586C629.807 152.586 631.001 152.967 631.906 153.729C632.811 154.484 633.365 155.558 633.566 156.951H631.691C631.34 155.07 630.22 154.129 628.332 154.129C627.076 154.129 626.122 154.572 625.471 155.457C624.826 156.336 624.501 157.612 624.494 159.285V160.447C624.494 162.042 624.859 163.312 625.588 164.256C626.317 165.193 627.303 165.662 628.547 165.662C629.25 165.662 629.865 165.584 630.393 165.428C630.92 165.271 631.356 165.008 631.701 164.637V161.443H628.41V159.92H633.566V165.135ZM646.738 160.428H640.576V165.467H647.734V167H638.701V152.781H647.637V154.324H640.576V158.895H646.738V160.428Z" fill="white"/>
</svg>
